# xmcd
#
# Track frame offsets:
#	150
#	24295
#	44955
#	62310
#	80807
#	99860
#	117687
#	133885
#	155470
#	176062
#	189507
#	210867
#	228792
#	250985
#	274417
#
# Disc length: 3963 seconds
#
# Revision: 12
# Processed by: cddbd v1.5.2PL0 Copyright (c) Steve Scherf et al.
# Submitted via: Jack! The Knife 20 Magnifico
#
DISCID=d10f790f
DTITLE=Pooh - The Best Of Pooh (Volume 2)
DYEAR=1997
DGENRE=Pop
TTITLE0=La donna del mio amico
TTITLE1=Tanta voglia di lei
TTITLE2=Canterò per te
TTITLE3=Uomini soli
TTITLE4=Dammi solo un minuto
TTITLE5=Buona fortuna
TTITLE6=In silenzio
TTITLE7=Ci penserò domani
TTITLE8=L'altra donna
TTITLE9=Piccola Katy
TTITLE10=Cercando di te
TTITLE11=Happy Christmas
TTITLE12=Parsifal 1° parte
TTITLE13=Parsifal 2* parte
TTITLE14=Non lasciarmi mai più
EXTD=Emmanuele Ruffinengo
EXTT0=Facchinetti, D'Orazio
EXTT1=Facchinetti, Negrini
EXTT2=Battaglia, Negrini
EXTT3=Facchinetti, Negrini
EXTT4=Facchinetti, Negrini
EXTT5=Facchinetti, D'Orazio
EXTT6=Facchinetti, Negrini
EXTT7=Battaglia, Negrini
EXTT8=Battaglia, Negrini
EXTT9=Facchinetti, Negrini
EXTT10=Canzian, D'Orazio
EXTT11=Lennon, Ono
EXTT12=Facchinetti, Negrini
EXTT13=Roby Facchinetti
EXTT14=Facchinetti, Negrini
PLAYORDER=
